# xmcd
# 
# Track frame offsets:
#     183
#     19220
#     35620
#     48365
#     61605
#     81913
#     96870
#     109648
#     123148
#     140633
#     150183
#     159153
#     171193
#     185835
#     199218
#     227713
#     246520
#     274955
#     288538
#     301415
# 
# Disc length: 4174
# 
# Revision: 6
# Processed by: cddbd v1.5.2PL0 Copyright (c) Steve Scherf et al.
# Submitted via: fre:ac v1.0.27
# 
DISCID=15104c14
DTITLE=Ray Charles - Best Of
DYEAR=1987
DGENRE=Jazz
TTITLE0=I Can't Stop Loving You
TTITLE1=Georgia On My Mind
TTITLE2=Yesterday
TTITLE3=Take These Chains From My Heart
TTITLE4=What'd I Say
TTITLE5=Here We Go Again
TTITLE6=Unchain My Heart
TTITLE7=Eleanor Rigby
TTITLE8=Ruby
TTITLE9=Busted
TTITLE10=Hit The Road Jack
TTITLE11=Together Again
TTITLE12=Born To Lose
TTITLE13=Crying Time
TTITLE14=I Got A Woman
TTITLE15=Baby It's Cold Outside
TTITLE16=Makin' Whoopee
TTITLE17=Let's Go Get Stoned
TTITLE18=Makin' Believe
TTITLE19=Don't Set Me Free
EXTD=Commander CD 99009 c.87 made in Switzerland. YEAR: 1987
EXTT0=
EXTT1=
EXTT2=
EXTT3=
EXTT4=
EXTT5=
EXTT6=
EXTT7=
EXTT8=
EXTT9=
EXTT10=
EXTT11=
EXTT12=
EXTT13=
EXTT14=
EXTT15=
EXTT16=
EXTT17=
EXTT18=
EXTT19=
PLAYORDER=
